<?xml version="1.0" encoding="UTF-8" standalone="no"?>
<!-- Created with Inkscape (http://www.inkscape.org/) -->

<svg
   version="1.1"
   id="svg9"
   width="880"
   height="880"
   viewBox="0 0 880 880"
   sodipodi:docname="aircraft-jet-publicdomain-vector.svg"
   inkscape:version="1.2 (dc2aedaf03, 2022-05-15)"
   xmlns:inkscape="http://www.inkscape.org/namespaces/inkscape"
   xmlns:sodipodi="http://sodipodi.sourceforge.net/DTD/sodipodi-0.dtd"
   xmlns="http://www.w3.org/2000/svg"
   xmlns:svg="http://www.w3.org/2000/svg">
  <defs
     id="defs13">
    <clipPath
       clipPathUnits="userSpaceOnUse"
       id="clipPath27">
      <path
         d="M 0,660 H 660 V 0 H 0 Z"
         id="path25" />
    </clipPath>
  </defs>
  <sodipodi:namedview
     id="namedview11"
     pagecolor="#ffffff"
     bordercolor="#000000"
     borderopacity="0.25"
     inkscape:showpageshadow="2"
     inkscape:pageopacity="0.0"
     inkscape:pagecheckerboard="0"
     inkscape:deskcolor="#d1d1d1"
     showgrid="false"
     inkscape:zoom="0.925"
     inkscape:cx="440"
     inkscape:cy="440"
     inkscape:window-width="1920"
     inkscape:window-height="1017"
     inkscape:window-x="-8"
     inkscape:window-y="-8"
     inkscape:window-maximized="1"
     inkscape:current-layer="g17">
    <inkscape:page
       x="0"
       y="0"
       id="page15"
       width="880"
       height="880" />
  </sodipodi:namedview>
  <g
     id="g17"
     inkscape:groupmode="layer"
     inkscape:label="Page 1"
     transform="matrix(1.3333333,0,0,-1.3333333,0,880)">
    <path
       d="M 1.788,0 H 659.999 V 659.438 H 1.788 Z"
       style="fill:#608896;fill-opacity:1;fill-rule:nonzero;stroke:none"
       id="path19" />
    <g
       id="g21">
      <g
         id="g23"
         clip-path="url(#clipPath27)">
        <g
           id="g29"
           transform="translate(318.6919,260.1885)">
          <path
             d="m 0,0 145.958,-18.472 c 9.312,-1.177 9.312,-32.038 0,-33.216 L 0,-70.159 C -22.515,-73.007 -22.518,2.849 0,0"
             style="fill:#b2d3de;fill-opacity:1;fill-rule:evenodd;stroke:none"
             id="path31" />
        </g>
        <g
           id="g33"
           transform="translate(372.0166,253.4395)">
          <path
             d="m 0,0 74.598,-9.439 c 8.887,-2.883 14.465,-11.403 15.707,-27.316 -41.215,-2.833 -82.432,-5.665 -123.647,-8.498 1.536,15.741 -3.028,29.822 -13.958,42.162 z"
             style="fill:#9fc7d4;fill-opacity:1;fill-rule:evenodd;stroke:none"
             id="path35" />
        </g>
        <path
           d="m 144.033,303.555 h 51.22 v 59.603 h -51.22 z"
           style="fill:#38555e;fill-opacity:1;fill-rule:evenodd;stroke:none"
           id="path37" />
        <path
           d="m 164.985,285.395 h 129.92 v 95.924 h -129.92 z"
           style="fill:#8ab0bd;fill-opacity:1;fill-rule:evenodd;stroke:none"
           id="path39" />
        <g
           id="g41"
           transform="translate(157.873,377.3584)">
          <path
             d="m 0,0 h -5.475 c -41.673,0 -73.184,-14.862 -102.323,-44.001 29.139,-29.142 60.65,-44.005 102.323,-44.005 H 0 Z"
             style="fill:#ff6699;fill-opacity:1;fill-rule:evenodd;stroke:none"
             id="path43" />
        </g>
        <g
           id="g45"
           transform="translate(50.0747,333.3569)">
          <path
             d="m 0,0 c 29.14,-29.141 60.65,-44.004 102.324,-44.004 h 5.474 V 44.001 C 101.109,20.929 94.418,-2.143 87.729,-25.216 55.704,-26.706 26.927,-16.643 0,0"
             style="fill:#ed4e83;fill-opacity:1;fill-rule:evenodd;stroke:none"
             id="path47" />
        </g>
        <g
           id="g49"
           transform="translate(228.4097,339.917)">
          <path
             d="M 0,0 169.958,188.654 223.497,161.46 147.865,1.7 C 99.801,-20.903 50.329,-18.189 0,0"
             style="fill:#c7e0e8;fill-opacity:1;fill-rule:evenodd;stroke:none"
             id="path51" />
        </g>
        <g
           id="g53"
           transform="translate(203.6353,401.8066)">
          <path
             d="M 0,0 311.156,-41.909 V -94.993 L 0,-136.902 Z"
             style="fill:#b2d3de;fill-opacity:1;fill-rule:evenodd;stroke:none"
             id="path55" />
        </g>
        <g
           id="g57"
           transform="translate(427.2842,359.6377)">
          <path
             d="m 0,0 c -13.594,36.531 -46.711,64.309 -88.086,69.106 -41.372,4.797 -79.967,-14.664 -101.563,-47.113 27.95,-9.961 59.671,-17.407 93.624,-21.345 C -62.072,-3.289 -29.486,-3.302 0,0"
             style="fill:#4c656e;fill-opacity:1;fill-rule:evenodd;stroke:none"
             id="path59" />
        </g>
        <g
           id="g61"
           transform="translate(342.2354,428.3442)">
          <path
             d="m 0,0 c -1.007,0.146 -2.02,0.281 -3.037,0.4 -14.562,1.689 -28.78,0.368 -42.036,-3.463 -16.393,-14.114 -30.816,-30.453 -43.251,-49.032 7.953,-2.433 16.158,-4.667 24.59,-6.683 11.54,15.98 24.802,29.982 39.764,42.026 C -16.421,-10.676 -8.432,-5.094 0,0 m 45.433,-17.801 c -6.545,4.522 -13.64,8.344 -21.19,11.342 -2.871,-5.022 -5.41,-10.239 -7.632,-15.611 -6.19,-14.968 -9.883,-31.121 -11.538,-47.569 8.106,-0.654 16.116,-1.086 24.006,-1.3 1.477,13.842 4.606,27.328 9.737,39.74 1.914,4.625 4.114,9.105 6.617,13.398"
             style="fill:#5e7882;fill-opacity:1;fill-rule:evenodd;stroke:none"
             id="path63" />
        </g>
        <g
           id="g65"
           transform="translate(349.0127,430.0718)">
          <path
             d="m 0,0 c -2.971,0.583 -5.986,1.058 -9.049,1.413 -3.128,0.363 -6.237,0.593 -9.33,0.702 -0.349,-26.809 -8.761,-49.993 -20.443,-71.702 6.966,-1.113 14.036,-2.089 21.201,-2.919 3.099,-0.358 6.185,-0.687 9.265,-0.986 C 0.229,-50.376 3.311,-25.949 0,0"
             style="fill:#c7e0e8;fill-opacity:1;fill-rule:evenodd;stroke:none"
             id="path67" />
        </g>
        <g
           id="g69"
           transform="translate(262.4014,319.5205)">
          <path
             d="M 0,0 18.667,-44.188 164.755,-24.511 147.864,-1.7 Z"
             style="fill:#9fc7d4;fill-opacity:1;fill-rule:evenodd;stroke:none"
             id="path71" />
        </g>
        <g
           id="g73"
           transform="translate(262.4014,319.5205)">
          <path
             d="m 0,0 169.958,-188.654 53.538,27.192 L 147.864,-1.7 C 99.801,20.903 50.329,18.186 0,0"
             style="fill:#c7e0e8;fill-opacity:1;fill-rule:evenodd;stroke:none"
             id="path75" />
        </g>
        <g
           id="g77"
           transform="translate(423.5801,321.9258)">
          <path
             d="m 0,0 96.719,-107.358 30.468,15.474 -43.04,90.915 C 56.794,11.896 28.642,10.35 0,0"
             style="fill:#c7e0e8;fill-opacity:1;fill-rule:evenodd;stroke:none"
             id="path79" />
        </g>
        <g
           id="g81"
           transform="translate(445.5879,369.2188)">
          <path
             d="M 0,0 94.271,81.59 H 197.945 L 150.415,68.854 69.203,-35.863 C 32.717,-33.668 11.558,-20.325 0,0"
             style="fill:#c7e0e8;fill-opacity:1;fill-rule:evenodd;stroke:none"
             id="path83" />
        </g>
        <g
           id="g85"
           transform="translate(127.0571,370.9131)">
          <path
             d="M 0,0 C -16.114,-1.414 -54.884,-14.542 -60.355,-30.262 -64.754,-42.897 15.82,-8.421 10.359,-1.708 8.882,0.108 2.105,0.008 0,0"
             style="fill:#ff8ab1;fill-opacity:1;fill-rule:evenodd;stroke:none"
             id="path87" />
        </g>
      </g>
    </g>
  </g>
</svg>
